<?xml version="1.0" standalone="no"?><!DOCTYPE svg PUBLIC "-//W3C//DTD SVG 1.1//EN" "http://www.w3.org/Graphics/SVG/1.1/DTD/svg11.dtd"><svg t="1661497416740" class="icon" viewBox="0 0 1024 1024" version="1.1" xmlns="http://www.w3.org/2000/svg" p-id="948" xmlns:xlink="http://www.w3.org/1999/xlink" width="128" height="128"><path d="M978.666667 920.58a53.3 53.3 0 0 1-52.82 60.753333H55.473333A53.3 53.3 0 0 1 2.666667 920.58c4.126667-28.78 12.893333-53.113333 26.786666-74.38 12.626667-19.333333 29.166667-35.56 50.58-49.66 38.1-25.086667 86.266667-39.6 137.266667-54.973333 20.433333-6.153333 41.56-12.52 62.666667-19.76 44-15.066667 68.606667-45.506667 75.046666-92.873334l-6.793333-5.093333a148.666667 148.666667 0 0 1-57.7-94.92l-3.073333-18.453333c-10.186667-2.866667-20.846667-9.513333-29.9-23.013334-8.62-12.873333-13.606667-28.8-18-42.846666-1.866667-5.96-3.626667-11.586667-5.42-16.186667C224.593333 404 218.666667 374.96 218.666667 352.666667c0-22.613333 9.58-35.786667 17.62-42.853334a50.12 50.12 0 0 1 19.713333-10.6V158.493333a85.073333 85.073333 0 0 1 37.433333-70.606666C328.913333 58.32 390 34.78 475.06 17.913333 538.873333 5.253333 600.08 0 618.666667 0a21.333333 21.333333 0 0 1 15.086666 36.42c-9.253333 9.253333-18.473333 19.3-25.866666 28l49.853333 10.593333A85.333333 85.333333 0 0 1 725.333333 158.493333v140.72a50.12 50.12 0 0 1 19.713334 10.6c8.04 7.066667 17.62 20.24 17.62 42.853334 0 22.293333-5.926667 51.333333-15.46 75.753333-1.793333 4.6-3.553333 10.226667-5.42 16.186667-4.4 14.046667-9.386667 30-18 42.846666-9.053333 13.5-19.713333 20.146667-29.9 23.013334l-3.073334 18.453333a148.666667 148.666667 0 0 1-57.7 94.92l-6.793333 5.093333c6.44 47.366667 31.073333 77.806667 75.046667 92.873334 21.126667 7.24 42.253333 13.606667 62.666666 19.76 51 15.373333 99.166667 29.886667 137.266667 54.973333 21.413333 14.1 37.953333 30.346667 50.58 49.66 13.913333 21.266667 22.673333 45.6 26.786667 74.38zM917.333333 298.666667h85.333334a21.333333 21.333333 0 0 0 0-42.666667h-85.333334a21.333333 21.333333 0 0 0 0 42.666667z m85.333334 469.333333h-21.333334a21.333333 21.333333 0 0 0 0 42.666667h21.333334a21.333333 21.333333 0 0 0 0-42.666667z m0-256h-128a21.333333 21.333333 0 0 0 0 42.666667h128a21.333333 21.333333 0 0 0 0-42.666667z" fill="#5C5C66" p-id="949"></path></svg>